<?xml version="1.0" encoding="UTF-8" standalone="no"?>
<!-- Generator: Adobe Illustrator 19.0.0, SVG Export Plug-In . SVG Version: 6.00 Build 0)  -->

<svg
   xmlns:dc="http://purl.org/dc/elements/1.1/"
   xmlns:cc="http://creativecommons.org/ns#"
   xmlns:rdf="http://www.w3.org/1999/02/22-rdf-syntax-ns#"
   xmlns:svg="http://www.w3.org/2000/svg"
   xmlns="http://www.w3.org/2000/svg"
   xmlns:sodipodi="http://sodipodi.sourceforge.net/DTD/sodipodi-0.dtd"
   xmlns:inkscape="http://www.inkscape.org/namespaces/inkscape"
   version="1.1"
   id="Capa_1"
   x="0px"
   y="0px"
   viewBox="0 0 30 30"
   xml:space="preserve"
   sodipodi:docname="logo.svg"
   inkscape:version="0.92.4 (5da689c313, 2019-01-14)"
   width="30"
   height="30"><metadata
   id="metadata51"><rdf:RDF><cc:Work
       rdf:about=""><dc:format>image/svg+xml</dc:format><dc:type
         rdf:resource="http://purl.org/dc/dcmitype/StillImage" /><dc:title></dc:title></cc:Work></rdf:RDF></metadata><defs
   id="defs49">
	
</defs><sodipodi:namedview
   pagecolor="#ffffff"
   bordercolor="#666666"
   borderopacity="1"
   objecttolerance="10"
   gridtolerance="10"
   guidetolerance="10"
   inkscape:pageopacity="0"
   inkscape:pageshadow="2"
   inkscape:window-width="1366"
   inkscape:window-height="704"
   id="namedview47"
   showgrid="false"
   inkscape:zoom="1.244016"
   inkscape:cx="196.2561"
   inkscape:cy="189.97881"
   inkscape:window-x="0"
   inkscape:window-y="27"
   inkscape:window-maximized="1"
   inkscape:current-layer="Capa_1" />
<g
   id="g12"
   style="fill:#ffffff"
   transform="scale(0.06122449)">
		<g
   id="g10"
   style="fill:#ffffff">
			<path
   inkscape:connector-curvature="0"
   id="path2"
   d="m 351.9,5.85 -14.4,36.9 c 57.9,22.6 101.5,73.9 113.2,136.5 l 39.3,-7.4 C 475.6,95.75 422.7,33.15 351.9,5.85 Z"
   style="fill:#ffffff" />
			<path
   inkscape:connector-curvature="0"
   id="path4"
   d="m 330.2,61.45 -59.1,152.1 160.2,-30.3 v 0 c -10.5,-54.9 -49,-101.5 -101.1,-121.8 z m 29.9,110.9 c -19.1,0 -34.6,-15.6 -34.6,-34.6 0,-19 15.6,-34.6 34.6,-34.6 19.1,0 34.6,15.6 34.6,34.6 0,19 -15.9,34.6 -34.6,34.6 z"
   style="fill:#ffffff" />
			<path
   inkscape:connector-curvature="0"
   id="path6"
   d="m 442.2,219.75 -29.6,5.4 v 0 c 2.3,12.1 3.5,24.1 3.5,36.2 0,106.6 -86.7,192.9 -192.9,192.9 -106.2,0 -193.3,-86.7 -193.3,-192.9 0,-106.2 86.8,-192.9 192.9,-192.9 24.1,0 47.8,4.3 70,13.2 l 10.9,-28 C 278.4,43.95 251.2,38.45 222.8,38.45 99.9,38.55 0,138.15 0,261.35 c 0,123.2 99.9,222.8 222.8,222.8 122.9,0 222.8,-99.9 222.8,-222.8 0.5,-14.4 -1.1,-28 -3.4,-41.6 z"
   style="fill:#ffffff" />
			<path
   inkscape:connector-curvature="0"
   id="path8"
   d="m 393.1,228.85 -170.2,32.2 62.2,-159.8 c 0,0 -24.6,-13.2 -62.6,-13.2 -95.3,0 -173.1,77.8 -173.1,173.1 0,95.3 77.8,172.9 173,172.9 95.2,0 173.1,-77.8 173.1,-173.1 1.6,-10.1 -2.4,-32.1 -2.4,-32.1 z m -238.3,-95.4 c 5.8,-2.3 11.7,-3.9 17.5,-4.7 5.4,-0.8 10.5,3.1 11.3,8.2 0.8,5.4 -3.1,10.5 -8.2,11.3 -4.3,0.8 -8.9,1.9 -12.8,3.5 -6.6,2.8 -11.3,-1.6 -12.8,-5.4 -2.4,-5.1 -0.1,-11 5,-12.9 z m -31.1,40.4 c 4.7,-0.4 9.3,1.2 12.8,3.9 4.3,3.1 5.1,9.3 1.9,14 -1.9,2.7 -7,6.1 -13.6,1.9 -5.4,0.4 -10.1,-3.9 -10.5,-9.3 -0.4,-5.4 3.9,-10.1 9.4,-10.5 z M 91,287.05 c -4.3,-3.1 -5.4,-9.3 -1.9,-14 3.1,-4.3 9.3,-5.4 14,-1.9 l 11.7,8.6 c 4.3,3.1 5.4,9.3 1.9,14 -1.9,2.7 -7.2,6.2 -13.6,1.9 z m 31.5,82.1 c -1.9,1.9 -8.6,5.2 -14,0 l -4.7,-4.7 c -3.9,-3.9 -3.9,-10.1 0,-14 3.9,-3.9 10.1,-3.9 14,0 l 4.7,4.7 c 3.9,3.8 3.9,10.1 0,14 z m -3.9,-130.7 c 0,-16.3 13.2,-29.6 29.6,-29.6 16.4,0 29.6,13.2 29.6,29.6 0,16.4 -13.2,29.6 -29.6,29.6 -16.4,0 -29.6,-13.3 -29.6,-29.6 z m 36.6,96.4 c -1.9,1.9 -8.5,5.3 -14,-0.4 l -7.4,-7.4 c -3.9,-3.9 -3.9,-10.1 0,-14 3.9,-3.9 10.1,-3.9 14,0 l 7.4,7.4 c 3.9,4.3 3.9,10.5 0,14.4 z m 49,69.6 c -1.6,4.3 -5.6,7.8 -12.4,6.2 l -16.3,-5.4 c -5.1,-1.6 -7.8,-7.4 -6.2,-12.4 1.6,-5.1 7.4,-7.8 12.4,-6.2 l 16.3,5.4 c 5,1.6 7.7,7 6.2,12.4 z m 12,-100.3 c -1.9,3.1 -6.5,7 -13.2,3.9 -5.4,-3.1 -10.5,-7 -14.8,-12.1 -3.5,-4.3 -3.1,-10.5 0.8,-14 4.3,-3.5 10.5,-3.1 14,0.8 2.7,3.1 5.8,5.8 9.3,7.8 4.7,3.1 6.6,8.9 3.9,13.6 z m -0.4,-104.6 c -1.8,1.2 -7.4,5.4 -14,-1.2 -4.3,-4.3 -7,-9.3 -9.7,-14.8 -2.3,-5.1 -0.4,-10.9 4.7,-13.2 5.1,-2.3 10.9,-0.4 13.2,4.7 1.9,3.9 4.3,7.4 7,10.5 3.5,4.3 2.7,10.5 -1.2,14 z m 2.8,-74.3 c -0.8,-5.4 2.7,-10.5 8.2,-11.3 7,-1.2 14.4,1.6 19.1,7 3.5,4.3 3.1,10.5 -1.2,14 -8,6.1 -14.8,-1.6 -14.8,-1.6 -5.5,1.3 -10.6,-2.6 -11.3,-8.1 z m 35,262.1 c -16.7,0 -30.3,-13.6 -30.3,-30.3 0,-16.7 13.6,-30.3 30.3,-30.3 16.7,0 30.3,13.6 30.3,30.3 0,16.7 -13.6,30.3 -30.3,30.3 z m 42.7,-74.6 c -5.2,1.3 -8.6,-1.2 -10.5,-3.9 -3.9,-1.6 -6.2,-5.4 -6.2,-9.7 0.4,-5.4 5.1,-9.7 10.5,-9.3 6.6,0.4 12.1,5.1 13.6,11.3 1.2,5 -2.3,10 -7.4,11.6 z m 59.5,7.4 -4.7,7.4 c -4.7,7 -12.1,4.3 -13.6,3.1 -4.7,-2.7 -6.2,-8.9 -3.1,-13.6 l 4.7,-7.4 c 2.7,-4.7 8.9,-6.2 13.6,-3.1 4.7,2.7 6.2,8.9 3.1,13.6 z m 3.9,-54.9 c -1.2,4.7 -5.1,7.4 -9.7,7.4 -0.8,0 -1.6,0 -2.3,-0.4 -2.7,-0.8 -5.1,-0.8 -7.8,-0.8 -5.4,0.8 -10.1,-3.1 -10.5,-8.6 -0.4,-5.4 3.5,-10.1 8.9,-10.5 4.7,-0.4 9.3,0 14,1.2 5.5,1.2 9,6.7 7.4,11.7 z"
   style="fill:#ffffff" />
		</g>
	</g>
<g
   id="g16"
   transform="scale(0.06122449)"
   style="fill:#ffffff">
</g>
<g
   id="g18"
   transform="scale(0.06122449)"
   style="fill:#ffffff">
</g>
<g
   id="g20"
   transform="scale(0.06122449)"
   style="fill:#ffffff">
</g>
<g
   id="g22"
   transform="scale(0.06122449)"
   style="fill:#ffffff">
</g>
<g
   id="g24"
   transform="scale(0.06122449)"
   style="fill:#ffffff">
</g>
<g
   id="g26"
   transform="scale(0.06122449)"
   style="fill:#ffffff">
</g>
<g
   id="g28"
   transform="scale(0.06122449)"
   style="fill:#ffffff">
</g>
<g
   id="g30"
   transform="scale(0.06122449)"
   style="fill:#ffffff">
</g>
<g
   id="g32"
   transform="scale(0.06122449)"
   style="fill:#ffffff">
</g>
<g
   id="g34"
   transform="scale(0.06122449)"
   style="fill:#ffffff">
</g>
<g
   id="g36"
   transform="scale(0.06122449)"
   style="fill:#ffffff">
</g>
<g
   id="g38"
   transform="scale(0.06122449)"
   style="fill:#ffffff">
</g>
<g
   id="g40"
   transform="scale(0.06122449)"
   style="fill:#ffffff">
</g>
<g
   id="g42"
   transform="scale(0.06122449)"
   style="fill:#ffffff">
</g>
<g
   id="g44"
   transform="scale(0.06122449)"
   style="fill:#ffffff">
</g>
</svg>